<svg width="38" height="38" viewBox="0 0 38 38" fill="none" xmlns="http://www.w3.org/2000/svg">
<g clip-path="url(#clip0_209_1230)">
<path d="M0 19C0 8.50659 8.50659 0 19 0C29.4934 0 38 8.50659 38 19C38 29.4934 29.4934 38 19 38C8.50659 38 0 29.4934 0 19Z" fill="url(#paint0_linear_209_1230)"/>
<g clip-path="url(#clip1_209_1230)">
<path d="M10.0905 31.843C10.168 31.8984 10.2566 31.9538 10.3342 32.0092C10.4228 32.0646 10.5004 32.12 10.589 32.1643C10.6666 32.2086 10.733 32.253 10.8106 32.2973C10.8217 32.3083 10.8327 32.3083 10.8438 32.3194C11.0986 32.4745 11.3645 32.6186 11.6304 32.7515C11.708 32.7958 11.7966 32.8401 11.8741 32.8734C11.8741 32.8734 11.8852 32.8844 11.8963 32.8844L12.1622 33.0174C12.3394 33.106 12.5278 33.1836 12.705 33.2611C12.7937 33.3054 12.8934 33.3387 12.982 33.3719C13.0706 33.4051 13.1703 33.4495 13.259 33.4827C13.3476 33.5159 13.4473 33.5602 13.5359 33.5935H13.547C13.6357 33.6267 13.7354 33.6599 13.824 33.6932C14.0234 33.7597 14.2339 33.8261 14.4333 33.8926C14.4998 33.9148 14.5773 33.9369 14.6438 33.9591C14.8543 34.0255 15.0648 34.0809 15.2753 34.1253C15.3529 34.1474 15.4304 34.1585 15.519 34.1806C15.7185 34.225 15.9289 34.2693 16.1284 34.3136C16.1727 34.3247 16.2059 34.3247 16.2502 34.3357C16.3167 34.3468 16.3943 34.3579 16.4607 34.369C16.5604 34.3801 16.6491 34.4022 16.7488 34.4133C16.7931 34.4244 16.8374 34.4244 16.8817 34.4355C16.9371 34.4465 17.0036 34.4576 17.0701 34.4576C17.2473 34.4798 17.4357 34.5019 17.6129 34.5241C17.6683 34.5352 17.7348 34.5352 17.7902 34.5462H17.8013C17.8788 34.5573 17.9564 34.5573 18.0339 34.5684C18.1115 34.5795 18.189 34.5795 18.2666 34.5795C18.3109 34.5795 18.3663 34.5906 18.4106 34.5906C18.4992 34.5906 18.5768 34.6016 18.6543 34.6016C18.7651 34.6016 18.8648 34.6127 18.9756 34.6127H19.5295C24.2048 34.5462 28.4036 32.5632 31.4059 29.4168C31.4059 29.4168 31.4059 29.4057 31.417 29.4057C31.7494 29.1066 31.4613 27.5113 30.1208 26.5031C28.4368 25.229 24.4042 24.4314 24.4042 24.4314C24.4042 24.4314 22.8421 24.1766 17.0479 25.3841C13.6578 26.0932 11.0765 27.1235 9.63624 29.9153C9.33711 30.4914 9.03799 31.3777 10.0905 31.843Z" fill="white"/>
<path d="M17.0147 25.2623C14.8876 25.6944 12.6164 26.1597 10.866 27.5667C10.2788 28.043 9.89105 28.741 9.56977 29.4168C9.41467 29.7492 9.25956 30.0926 9.1377 30.4582C9.07122 30.7019 8.97152 30.9789 9.02691 31.267C9.03799 31.3445 9.10446 31.4442 9.15985 31.4996C9.41467 31.7544 9.69163 31.9095 9.9686 32.1089C11.5972 33.239 13.4695 34.0366 15.4083 34.4576C19.729 35.3993 24.4042 34.6681 28.2042 32.397C29.4671 31.6326 30.6304 30.7019 31.6275 29.6051C31.7383 29.4722 31.7383 29.2506 31.7383 29.1066C31.7272 28.7742 31.6386 28.453 31.5278 28.1538C31.2619 27.467 30.9185 26.7801 30.3313 26.3037C29.9103 26.0156 29.4561 25.7719 28.9908 25.5725C27.5284 24.9521 25.9884 24.52 24.4042 24.3428C24.2712 24.3317 24.2491 24.52 24.382 24.5422C25.8998 24.8524 27.4065 25.3177 28.8135 25.9492C29.3231 26.204 29.866 26.4256 30.2759 26.8244C30.6636 27.2454 30.9406 27.7661 31.1622 28.2979C31.3062 28.6191 31.4059 29.1288 31.3616 29.3836C30.6636 30.2145 29.8438 30.9457 28.9575 31.5772C24.105 34.9672 16.7377 35.1888 11.575 32.3637C11.1097 32.1089 10.6555 31.8209 10.2234 31.5218C10.0129 31.3777 9.79134 31.2559 9.62516 31.0897C9.61408 31.0786 9.62516 31.0897 9.62516 31.1008C9.62516 31.1119 9.63624 31.1229 9.63624 31.1229C9.62516 30.99 9.66948 30.8127 9.72487 30.6355C9.92429 29.9929 10.2456 29.3171 10.589 28.7299C11.1319 27.8547 12.0514 27.3008 12.982 26.8576C13.6246 26.5585 14.3004 26.3258 14.9873 26.1043C15.6741 25.8827 16.3721 25.6944 17.0701 25.5282C17.2473 25.4839 17.1919 25.2291 17.0147 25.2623Z" fill="black"/>
</g>
<g clip-path="url(#clip2_209_1230)">
<path d="M23.3406 25.4617C23.3406 25.4617 23.5622 24.088 23.9389 24.1655C24.8363 24.376 27.7389 24.9853 29.5115 25.9381C29.8992 26.1486 30.1762 26.3148 30.5086 26.625C31.1179 27.2011 31.5389 28.6967 32.0485 30.5136C33.1342 34.4023 34.4304 38.7008 34.4304 38.7008H6.41234C6.41234 38.7008 8.16278 36.6069 8.71671 32.9066C9.23742 29.4279 10.2677 28.176 10.445 27.9544C10.9325 27.3451 13.1704 26.1154 14.2561 25.6501C15.9179 24.941 17.5908 26.4256 18.0672 26.3923C18.9091 26.3702 23.3406 25.4617 23.3406 25.4617Z" fill="black" stroke="black" stroke-width="5.126" stroke-miterlimit="10" stroke-linecap="round" stroke-linejoin="round"/>
<path d="M28.9465 38.7119L29.4451 34.6017M9.5919 33.2058C9.5919 33.2058 9.92426 34.0146 9.82455 34.8233C9.72484 35.632 9.43679 36.8175 9.84671 38.7119" stroke="white" stroke-width="3" stroke-miterlimit="10" stroke-linecap="round" stroke-linejoin="round"/>
<path d="M24.6258 23.0466C24.6258 23.0466 25.4235 23.3347 25.5675 23.4898C25.7115 23.6449 25.778 23.7446 25.778 23.7446C25.778 23.7446 26.1768 24.1877 26.3984 25.2624C26.4981 25.7166 26.2655 26.4589 26.4427 27.046C26.9524 28.6746 24.5372 31.1784 20.5489 32.6519C17.5244 33.7708 14.1897 32.7516 13.7244 30.6466C13.2812 28.6192 13.5471 27.6997 13.7576 27.046C14.1786 25.7831 14.3115 25.4285 14.8766 24.9411C15.2311 24.6309 15.4748 25.2734 16.8042 25.639C17.2142 25.7498 17.7127 25.8384 18.3553 25.8606C22.1774 26.0046 22.2661 23.6892 22.8422 23.0798C22.9751 22.9469 23.7284 22.7253 24.6258 23.0466Z" fill="white"/>
<path d="M24.5592 23.2018C24.8472 23.3126 25.1796 23.4234 25.4344 23.6006C25.5009 23.6671 25.5784 23.7668 25.6449 23.8443C25.8665 24.1324 26.0105 24.498 26.1213 24.8414C26.2432 25.207 26.2875 25.5394 26.2432 25.9271C26.221 26.2706 26.1878 26.6473 26.2653 26.9907C26.3983 27.3785 26.365 27.7884 26.2099 28.1761C25.3236 30.4583 21.0805 32.663 18.7207 32.8846C16.9924 33.0618 14.5883 32.5855 13.9347 30.7796C13.6023 29.4945 13.4694 28.0986 13.9569 26.8467C14.1452 26.3149 14.3003 25.7277 14.6548 25.2957C14.7102 25.2292 14.7767 25.1627 14.8432 25.0962L14.9429 25.0076C14.9761 24.9855 14.9983 24.9633 15.0315 24.9633C15.1755 24.9411 15.3528 25.0852 15.4857 25.1627C16.4828 25.8164 17.7236 25.9825 18.898 25.9382C20.0723 25.9161 21.3353 25.5616 22.0665 24.5866C22.4321 24.1546 22.5983 23.6006 22.9306 23.1685L22.9417 23.1575L22.9639 23.1464C23.4735 22.9359 24.0717 23.0134 24.5592 23.2018ZM24.6478 22.9581C24.0717 22.7476 23.3516 22.6368 22.7977 22.947C22.6537 23.0799 22.565 23.2793 22.4764 23.4566C22.3102 23.8111 22.1551 24.1546 21.9335 24.4648C21.2799 25.4508 20.0391 25.772 18.909 25.772C18.1446 25.7831 17.358 25.7167 16.6379 25.4729C16.2723 25.3511 15.9289 25.1849 15.6076 24.9744C15.386 24.8304 15.0758 24.6088 14.8321 24.8414C14.5551 25.063 14.3225 25.3511 14.1674 25.6613C13.9125 26.2041 13.7353 26.7581 13.5469 27.3231C13.2146 28.4863 13.3697 29.705 13.6356 30.8572C14.3225 32.8735 16.8595 33.3942 18.7429 33.1948C21.0472 32.9511 24.4484 31.1452 25.8665 29.3062C26.3429 28.6747 26.7749 27.877 26.5644 27.0572C26.4426 26.7027 26.4758 26.326 26.509 25.9382C26.5644 25.5505 26.509 25.1295 26.3761 24.7528C26.2653 24.3761 26.077 23.9551 25.8554 23.6782C25.7446 23.5341 25.6117 23.368 25.4566 23.2904C25.2018 23.1575 24.9359 23.0356 24.6478 22.9581Z" fill="black"/>
<path d="M16.7819 25.7941C17.7347 26.0046 18.7096 26.0046 19.6735 25.9271C20.9586 25.8163 22.2659 25.3953 23.1854 24.4536C23.4181 24.232 23.6286 23.9662 23.8391 23.7557C23.9055 23.6892 23.9055 23.5784 23.8391 23.5119C23.7726 23.4455 23.6507 23.4455 23.5953 23.523C23.3848 23.7889 23.2076 24.0326 22.9971 24.2653C21.9335 25.4618 20.2606 25.8052 18.7207 25.7609C18.1003 25.7388 17.4688 25.6834 16.8705 25.4839C16.649 25.4064 16.5493 25.7388 16.7819 25.7941Z" fill="black"/>
<path d="M14.7989 24.5422C13.7907 25.3842 12.0403 27.5889 12.4613 32.5189C12.6718 34.9562 11.4864 35.9644 11.7523 36.3521C11.7966 36.4186 11.852 36.4519 11.8963 36.4629C12.0846 36.5073 12.2619 36.5959 12.3505 36.7731C12.3837 36.8507 12.4391 36.9061 12.5167 36.9504C12.5832 36.9947 12.6607 36.9947 12.7272 36.9836C12.9598 36.9282 13.2146 37.0612 13.3587 37.2606C13.4141 37.3382 13.4805 37.3935 13.5802 37.4157C13.6467 37.4379 13.7132 37.4268 13.7575 37.4157C13.9458 37.3603 14.1563 37.4157 14.3225 37.5486C14.3668 37.5819 14.4111 37.604 14.4665 37.604C14.5663 37.604 14.6438 37.5597 14.7103 37.4933C14.8654 37.3492 15.087 37.2938 15.3085 37.3714C15.3307 37.3825 15.3418 37.3825 15.3639 37.3825C15.519 37.4046 15.6409 37.2828 15.7295 37.0723C15.8181 36.8728 16.0286 36.7842 16.2502 36.8064C16.2945 36.8064 16.3388 36.8064 16.3942 36.7953C16.8263 36.6956 17.3802 36.0973 17.3913 35.3661C17.4024 34.646 17.2362 33.3941 16.9593 32.807C16.1062 31.0011 15.796 29.7049 15.7517 28.73C15.663 26.9463 16.7931 25.351 16.6823 25.3177C15.5523 25.0851 14.7989 24.5422 14.7989 24.5422Z" fill="white"/>
<path d="M14.7989 24.376C14.5109 24.5311 14.2782 24.8191 14.0566 25.0629C12.9155 26.4255 12.4391 28.2092 12.3062 29.9596C12.2619 30.6355 12.2508 31.3223 12.3062 31.9981L12.3394 32.5078C12.417 33.3276 12.3394 34.1696 12.0625 34.9451C11.9517 35.2553 11.8187 35.5544 11.6858 35.8757C11.6082 36.0529 11.5528 36.3188 11.719 36.4739C11.7744 36.5515 11.8963 36.5736 11.996 36.6069C12.0957 36.6401 12.1843 36.6955 12.2397 36.7841C12.3284 36.9725 12.5278 37.1387 12.7494 37.0943C12.9155 37.05 13.0928 37.1276 13.2147 37.2494C13.3365 37.4156 13.5027 37.5597 13.7243 37.5264C13.8683 37.4932 14.0123 37.471 14.1563 37.5486C14.2117 37.5707 14.2561 37.615 14.3004 37.6483C14.4333 37.7258 14.5995 37.7037 14.7214 37.6261C14.81 37.5707 14.8321 37.5153 14.9097 37.4821C15.0205 37.4267 15.1645 37.4156 15.2864 37.4599C15.5633 37.5486 15.7628 37.3048 15.8514 37.0833C15.9289 36.9171 16.1394 36.8838 16.3056 36.906C16.4275 36.906 16.5494 36.8617 16.6601 36.8063C17.1365 36.5404 17.4467 36.0419 17.5132 35.499C17.5464 34.9783 17.48 34.4687 17.4024 33.9591C17.347 33.6267 17.2695 33.2833 17.1587 32.962C17.0368 32.6407 16.8817 32.3527 16.7488 32.0314C16.2502 30.8127 15.7849 29.4943 15.8735 28.1538C15.9622 27.2343 16.3056 26.3701 16.7377 25.5614C16.782 25.4617 16.8928 25.2844 16.7377 25.229C16.1284 25.085 15.5412 24.8302 15.0205 24.4757C14.9319 24.4424 14.8765 24.376 14.7989 24.376ZM14.81 24.7083C14.7878 24.7083 14.7657 24.7083 14.7435 24.6973C14.7103 24.6751 14.7324 24.6862 14.7324 24.6862C15.0316 24.8524 15.3418 24.9964 15.6631 25.1183C15.9733 25.229 16.4164 25.362 16.6712 25.4063C16.6491 25.3952 16.6269 25.3731 16.6269 25.3398C16.6047 25.4285 16.494 25.6279 16.4607 25.7165C15.231 28.1649 15.4193 29.6827 16.4607 32.1532C16.5826 32.4524 16.7488 32.7626 16.8706 33.0728C17.1033 33.7597 17.203 34.513 17.2252 35.2442C17.2584 35.8092 16.9039 36.4739 16.3499 36.629H16.2945C16.1173 36.618 15.94 36.6512 15.796 36.762C15.7184 36.8174 15.652 36.906 15.6077 37.0057C15.5633 37.1054 15.508 37.2384 15.3972 37.2162C15.1534 37.1387 14.8765 37.1719 14.677 37.3492C14.5995 37.4267 14.5441 37.471 14.4444 37.4378C14.3115 37.3381 14.1563 37.2605 13.9791 37.2494C13.8351 37.2273 13.691 37.3381 13.5581 37.2494C13.4916 37.2051 13.4584 37.1387 13.403 37.0833C13.2368 36.9171 12.9931 36.8063 12.7494 36.8617C12.5942 36.906 12.5056 36.7841 12.4502 36.6623C12.3394 36.4961 12.1511 36.4075 11.9628 36.3632C11.7966 36.2967 11.8741 36.1083 11.9184 35.9643C12.0403 35.6652 12.1843 35.3439 12.2951 35.0226C12.4059 34.7013 12.4945 34.369 12.5389 34.0255C12.6496 33.3608 12.5942 32.6629 12.5499 31.9871C12.5056 31.3223 12.5167 30.6465 12.561 29.9818C12.705 28.2646 13.2147 26.4809 14.4001 25.1847C14.4998 25.0629 14.6327 24.9521 14.7435 24.8413C14.7546 24.797 14.7768 24.7637 14.81 24.7083Z" fill="black"/>
<path d="M16.4053 31.666C18.3662 31.7435 20.449 31.4112 22.0444 30.2147C22.1108 30.1703 22.0333 30.0595 21.9668 30.1149C20.7814 30.9569 19.319 31.2893 17.8788 31.3668C17.4024 31.389 16.9038 31.389 16.4385 31.3447C16.2059 31.3225 16.1726 31.6438 16.4053 31.666ZM15.4635 25.6281C14.9649 26.1488 14.6991 26.88 14.7323 27.6001C14.7323 27.6333 14.7877 27.6444 14.7988 27.6112C14.9539 27.1126 15.1311 26.6362 15.3638 26.182C15.4413 26.0269 15.5189 25.8718 15.5854 25.7167C15.5964 25.6391 15.5078 25.5837 15.4635 25.6281ZM14.2559 37.4823C14.6991 36.175 14.4775 34.7458 14.1894 33.4275C13.9235 32.1423 13.6909 30.8018 13.846 29.4945C13.8682 29.4059 13.7241 29.3616 13.702 29.4613C13.5136 30.8018 13.702 32.1534 13.9457 33.4718C14.0786 34.1254 14.1784 34.7791 14.1894 35.4327C14.2005 36.0642 14.1673 36.7289 13.9346 37.3272C13.8571 37.5488 14.1562 37.6928 14.2559 37.4823ZM26.2653 25.7499C25.8776 26.5698 25.4123 27.4007 24.7476 28.0211C24.6922 28.0654 24.7586 28.1651 24.8251 28.1097C25.5785 27.5225 26.1102 26.7138 26.5756 25.894C26.6642 25.6945 26.354 25.5394 26.2653 25.7499ZM15.807 28.2537C16.4164 29.8712 18.1446 29.7715 19.4741 29.14C19.5184 29.1179 19.5406 29.0735 19.5184 29.0292C19.4963 28.9849 19.4519 28.9628 19.4076 28.9849C19.0974 29.1068 18.7761 29.2176 18.4549 29.273C17.491 29.4835 16.4496 29.1733 16.1283 28.1651C16.0729 27.9435 15.7516 28.0432 15.807 28.2537Z" fill="black"/>
</g>
<path d="M15.9732 28.2094C16.2058 29.3505 17.7125 30.0374 20.2495 29.007C22.8863 27.9435 24.0274 25.4064 24.3154 24.6531C22.7533 21.7283 23.839 19.7009 23.839 19.7009C20.2385 19.3907 17.0921 23.6006 17.0921 23.6006L16.6046 25.6834C16.5603 25.8607 16.4717 26.0158 16.3388 26.1266C16.1061 26.5365 15.8291 27.4782 15.9732 28.2094Z" fill="white"/>
<path d="M24.371 24.6864C24.1605 24.3651 24.0276 23.9885 23.939 23.6229C23.7728 22.8584 23.7174 22.0829 23.7063 21.3074V21.0194C23.7396 20.7313 23.8393 20.4322 23.9501 20.1663C24.0941 19.8118 23.5734 19.5902 23.4072 19.9447C23.385 19.989 23.385 20.0666 23.385 20.1109C23.3518 21.6176 23.2853 23.5564 24.2381 24.8083C24.3046 24.8748 24.4375 24.775 24.371 24.6864ZM16.9705 23.5785C16.8043 23.6783 16.7489 23.8112 16.7267 23.9441C16.6603 24.21 16.6824 24.4981 16.6159 24.775C16.5605 25.0409 16.3944 25.2957 16.3501 25.5727C16.2947 25.8608 16.1285 26.4701 16.062 26.7692C16.0398 26.8357 16.0842 26.9132 16.1617 26.9243C16.206 26.9354 16.2393 26.9243 16.2725 26.9022C16.4165 26.7803 16.483 26.6584 16.5716 26.5033C16.7156 26.2374 16.8154 25.9937 16.904 25.6946C16.9815 25.4287 16.9483 25.1406 17.0148 24.8637C17.0702 24.5978 17.2253 24.343 17.2807 24.066C17.3139 23.9331 17.325 23.789 17.2253 23.6229C17.1588 23.5564 17.048 23.5342 16.9705 23.5785Z" fill="black"/>
<path d="M16.1726 26.5032C18.2887 26.3924 20.017 25.7277 21.7009 22.7253C20.2829 23.9772 18.61 24.4536 16.8484 24.6752L16.6158 25.6944C16.5715 25.8717 16.3056 26.3924 16.1726 26.5032Z" fill="black"/>
<path d="M16.2612 26.0932C15.8846 26.8022 15.663 27.6885 15.8957 28.4751C16.0729 29.029 16.5825 29.439 17.1365 29.5941C18.4216 29.9375 19.9061 29.3946 21.0473 28.7853C22.4543 27.9987 23.4957 26.6804 24.1604 25.2401C24.2047 25.1293 24.0496 25.0407 23.9831 25.1515C23.7505 25.6168 23.4846 26.071 23.1854 26.4809C22.8863 26.9019 22.5429 27.2897 22.1551 27.6331C21.0251 28.6524 19.4962 29.2839 17.9674 29.2839C16.3942 29.2395 15.7959 28.4086 16.1615 26.8798C16.2169 26.636 16.3056 26.3812 16.4274 26.1707C16.4939 26.0821 16.3277 25.9824 16.2612 26.0932Z" fill="black"/>
<path d="M11.9739 12.7877C11.7745 13.7183 11.9296 14.3387 12.0182 16.909C12.0625 18.1276 12.2509 18.5819 12.3063 19.9445C12.3284 20.565 12.7826 21.418 12.9488 21.9166C13.1704 22.5924 13.392 23.5008 13.9016 24.1545C14.1675 24.4868 14.4888 24.6862 15.0205 24.7749C15.1978 24.8081 15.3751 24.5422 15.5191 24.5976C17.2584 25.362 19.164 25.0075 20.8923 23.5008C21.6456 22.8361 22.7757 21.2297 23.252 20.1218C23.3517 19.8892 23.7949 20.3766 24.4264 19.6787C25.3016 18.7259 26.3541 16.8093 25.8334 13.4192C24.9914 7.92414 20.6375 7.28157 17.4136 7.8909C14.1675 8.50023 12.5057 10.3393 11.9739 12.7877Z" fill="white"/>
<path d="M23.8724 20.6537C24.1272 20.2327 24.4596 19.856 24.7587 19.4572C25.2018 18.8478 25.5342 18.1499 25.7558 17.4298C26.8969 13.8624 25.8112 9.02101 21.8228 7.86883C20.3604 7.42568 18.8094 7.45891 17.3249 7.73588C15.3307 8.07932 13.3365 9.09856 12.3616 10.9487C12.0071 11.6356 11.7412 12.3779 11.6637 13.1423C11.6193 13.6519 11.708 14.1615 11.7634 14.6601C11.8298 15.1586 11.8409 15.6461 11.8631 16.1446C11.9185 16.8869 12.0182 17.6181 12.0514 18.3604C12.0957 18.8589 12.0625 19.3575 12.14 19.856C12.3062 20.8531 12.6829 21.7837 12.9931 22.7254C13.2368 23.4455 13.4806 24.3318 14.2228 24.6974C14.7546 25.0187 15.3972 25.0298 15.9844 24.9854C16.073 24.9854 16.1395 24.9633 16.2059 24.9854C17.6351 25.2624 18.9645 25.0187 20.161 24.1545C20.7371 23.7003 21.424 23.2682 21.8561 22.67C21.9004 22.6035 21.8118 22.526 21.7564 22.5814C21.4129 22.9248 21.003 23.1907 20.582 23.4455C20.15 23.7114 19.7622 23.9884 19.3301 24.1767C18.4106 24.6198 17.3803 24.6863 16.3832 24.5091C16.3278 24.498 16.217 24.4758 16.1616 24.4869C15.796 24.5091 15.4415 24.5423 15.087 24.4869C14.6549 24.4204 14.2339 24.2321 13.9902 23.8776C13.7354 23.5231 13.6024 23.0356 13.4252 22.5703C13.0817 21.6507 12.6718 20.7423 12.4613 19.7895C12.3727 19.3796 12.3505 18.7592 12.3173 18.3271C12.2397 17.3411 12.0625 16.3662 12.0625 15.3691C12.0514 14.8706 12.0403 14.372 12.0514 13.8846C12.1844 11.4029 13.6135 9.27582 15.9733 8.4006C18.5989 7.4146 22.0998 7.48107 24.0275 9.77437C24.9581 10.8712 25.3902 12.3114 25.5896 13.7184C25.9663 15.9563 25.8223 18.172 24.0386 19.8006L23.5179 20.3435C23.3185 20.6315 23.6951 20.9196 23.8724 20.6537Z" fill="black"/>
<path d="M22.5651 17.1306C22.5651 17.1306 22.9085 15.4688 24.526 15.6682C25.9219 15.8455 26.4094 19.1913 23.2409 20.1219" fill="white"/>
<path d="M23.3848 18.6706C23.6397 18.5266 23.8169 18.2829 23.828 17.9837C23.8169 17.7622 23.7837 17.5074 23.8391 17.2858C23.8723 17.0753 24.0939 17.0199 24.2601 17.031C24.4373 17.0642 24.5481 17.2858 24.5813 17.463C24.5813 17.4741 24.5924 17.5074 24.5924 17.5184C24.6035 17.5738 24.6921 17.5738 24.7143 17.5184C24.8583 17.0864 24.537 16.61 24.0717 16.6654C23.4181 16.7097 23.3295 17.3966 23.4513 17.9173C23.5178 18.1388 23.4292 18.3383 23.3073 18.5266L23.2851 18.5598C23.2297 18.6263 23.3184 18.7149 23.3848 18.6706ZM14.5219 15.9563C14.3557 16.7429 14.0455 17.4741 13.6577 18.161C13.3143 19.003 14.2006 19.8007 14.9872 19.7674C15.0758 19.7674 15.0869 19.6456 15.0093 19.6234C14.5108 19.4683 14.0566 19.1359 13.979 18.6263C13.9458 18.4712 13.9901 18.3383 14.0676 18.2053C14.4332 17.5184 14.6548 16.7319 14.5994 15.9563C14.5994 15.9009 14.5219 15.9009 14.5219 15.9563Z" fill="black"/>
<path d="M22.6205 17.1418C22.8753 16.4881 23.4293 15.8677 24.1715 15.8788C24.238 15.8677 24.3488 15.8899 24.4153 15.8899C24.6036 15.9009 24.7587 15.9674 24.9027 16.1004C25.6118 16.8094 25.4899 18.0613 24.9138 18.8479C24.7144 19.1248 24.4596 19.3686 24.1715 19.568C23.8835 19.7674 23.5622 19.9225 23.2188 20.0555C23.1412 20.0776 23.1744 20.1995 23.252 20.1884C23.9943 20.0333 24.7033 19.6677 25.1908 19.0584C25.9441 18.1499 26.0992 16.6321 25.2018 15.7458C25.0024 15.5686 24.7255 15.4356 24.4485 15.4356C24.3599 15.4356 24.2269 15.4135 24.1383 15.4356C23.673 15.4578 23.2298 15.6904 22.9418 16.056C22.687 16.3662 22.543 16.7429 22.4986 17.1196C22.4986 17.1861 22.5984 17.2082 22.6205 17.1418ZM16.4164 24.5756C15.9068 24.4648 15.6077 23.9662 15.652 23.4566C15.6631 23.3791 15.5412 23.3569 15.5301 23.4345C15.3418 24.0659 15.6852 24.7528 16.2946 24.9966C16.6158 25.1184 16.7488 24.631 16.4164 24.5756Z" fill="black"/>
<path d="M11.0764 11.0927C10.323 10.439 9.21513 9.45303 10.3562 8.07927C11.4973 6.70551 13.6023 7.23729 13.6023 7.23729C13.6023 7.23729 13.1592 5.97432 14.3889 5.52009C15.8734 4.97723 20.0834 6.61688 20.0834 6.61688C20.3936 6.6058 20.6927 6.59472 20.9697 6.59472C24.6035 6.51717 25.656 8.81047 25.7003 10.8711C25.7003 10.8711 26.93 11.281 27.2402 13.242C27.3399 13.8734 27.4396 14.6822 27.1959 15.6571C26.5422 18.316 24.7807 20.1662 23.6618 21.1078C23.2408 20.7976 23.9831 20.3656 23.9277 19.8559C26.3318 18.6816 25.8111 15.8344 24.5259 15.6682C23.5399 15.5463 23.0192 16.1224 22.7755 16.5877C22.6758 16.7207 24.0052 9.30901 16.3387 11.7352C14.821 12.2116 13.2589 12.6326 12.1953 11.8682C12.0734 12.1008 11.9959 12.3778 11.9737 12.7877C11.9737 12.7877 10.1236 12.0676 10.4006 11.3143C10.4892 11.0594 11.0764 11.0927 11.0764 11.0927Z" fill="black"/>
<path d="M18.1337 16.2997V16.3218L18.1447 16.632C18.1558 16.8979 18.3774 17.0974 18.6433 17.0863C18.9092 17.0752 19.1086 16.8425 19.0864 16.5877L19.0753 16.2775C19.0753 16.2221 19.0532 16.1557 19.031 16.1113L18.1447 16.1557C18.1447 16.2 18.1337 16.2443 18.1337 16.2997ZM13.5028 16.5434L13.5138 16.8315C13.5249 17.0752 13.7354 17.2635 13.9791 17.2525C14.2229 17.2414 14.4112 17.0309 14.4001 16.7871L14.3891 16.4991C14.3891 16.4437 14.378 16.3883 14.3558 16.344L13.5249 16.3772C13.5138 16.4326 13.5028 16.488 13.5028 16.5434ZM17.0258 14.7819C16.7821 14.8151 16.5937 14.5603 16.6823 14.3166C16.7267 14.1836 16.8042 14.0618 16.9261 13.9842C17.3028 13.7516 18.7098 13.7294 19.452 14.2612C20.1167 14.7487 18.1337 14.6268 17.0258 14.7819ZM13.957 14.9038C14.1564 14.9038 14.2783 14.649 14.1786 14.4385C14.1232 14.3277 14.0456 14.228 13.9348 14.1726C13.5914 14.0064 12.6719 14.1061 12.2619 14.6711C11.8963 15.1697 13.0374 14.8927 13.957 14.9038Z" fill="black"/>
<path d="M17.4246 16.2997L19.2526 16.2665C19.4742 16.2554 19.4631 15.923 19.2415 15.9341L17.4135 16.0671C17.2584 16.0781 17.2695 16.2997 17.4246 16.2997ZM13.0373 16.488L14.3889 16.5102C14.6105 16.5102 14.6216 16.1889 14.4 16.1778H14.3778L13.0262 16.3219C12.9265 16.3329 12.9376 16.477 13.0373 16.488Z" fill="black"/>
<path d="M15.3639 20.8753C16.0729 21.5511 17.4135 21.0083 17.768 20.1885C17.8123 20.0887 17.7015 20.0001 17.6129 20.0444C17.4245 20.1441 17.2584 20.2439 17.0811 20.3214C16.5715 20.5541 16.0397 20.7424 15.4747 20.687C15.3639 20.6648 15.2864 20.7978 15.3639 20.8753Z" fill="black"/>
</g>
<defs>
<linearGradient id="paint0_linear_209_1230" x1="19" y1="0" x2="19" y2="38" gradientUnits="userSpaceOnUse">
<stop stop-color="#47B2B9"/>
<stop offset="1" stop-color="#70A97C"/>
</linearGradient>
<clipPath id="clip0_209_1230">
<path d="M0 19C0 8.50659 8.50659 0 19 0C29.4934 0 38 8.50659 38 19C38 29.4934 29.4934 38 19 38C8.50659 38 0 29.4934 0 19Z" fill="white"/>
</clipPath>
<clipPath id="clip1_209_1230">
<rect width="33.9009" height="33.9009" fill="white" transform="matrix(-1 0 0 1 36.2473 1)"/>
</clipPath>
<clipPath id="clip2_209_1230">
<rect width="33.9009" height="38" fill="white" transform="matrix(-1 0 0 1 36.2473 1)"/>
</clipPath>
</defs>
</svg>
