<svg width="55" height="55" viewBox="0 0 55 55" fill="none" xmlns="http://www.w3.org/2000/svg">
<path d="M21.804 6.68109C20.3974 7.87972 18.6487 8.60409 16.8065 8.7511C12.5078 9.09414 9.0942 12.5077 8.75116 16.8065C8.60415 18.6486 7.87978 20.3974 6.68115 21.8039C3.88403 25.0862 3.88403 29.9137 6.68115 33.1959C7.87978 34.6024 8.60415 36.3512 8.75116 38.1934C9.0942 42.4921 12.5078 45.9057 16.8065 46.2487C18.6487 46.3957 20.3975 47.1201 21.804 48.3188C25.0862 51.1159 29.9137 51.1159 33.196 48.3188C34.6025 47.1201 36.3513 46.3957 38.1934 46.2487C42.4922 45.9057 45.9058 42.4921 46.2488 38.1934C46.3958 36.3512 47.1202 34.6024 48.3188 33.1959C51.1159 29.9137 51.1159 25.0862 48.3188 21.8039C47.1202 20.3974 46.3958 18.6486 46.2488 16.8065C45.9058 12.5077 42.4922 9.09414 38.1934 8.7511C36.3513 8.60409 34.6025 7.87972 33.196 6.68109C29.9137 3.88397 25.0862 3.88397 21.804 6.68109Z" fill="url(#paint0_linear_346_141)"/>
<path d="M20.625 27.4999L25.2083 32.0833L35.5208 21.7708M16.8065 8.7511C18.6487 8.60409 20.3974 7.87972 21.804 6.68109C25.0862 3.88397 29.9137 3.88397 33.196 6.68109C34.6025 7.87972 36.3513 8.60409 38.1934 8.7511C42.4922 9.09414 45.9058 12.5077 46.2488 16.8065C46.3958 18.6486 47.1202 20.3974 48.3188 21.8039C51.1159 25.0862 51.1159 29.9137 48.3188 33.1959C47.1202 34.6024 46.3958 36.3512 46.2488 38.1934C45.9058 42.4921 42.4922 45.9057 38.1934 46.2487C36.3513 46.3957 34.6025 47.1201 33.196 48.3188C29.9137 51.1159 25.0862 51.1159 21.804 48.3188C20.3975 47.1201 18.6486 46.3957 16.8065 46.2487C12.5078 45.9057 9.0942 42.4921 8.75116 38.1934C8.60415 36.3512 7.87978 34.6024 6.68115 33.1959C3.88403 29.9137 3.88403 25.0862 6.68115 21.8039C7.87978 20.3974 8.60415 18.6486 8.75116 16.8065C9.0942 12.5077 12.5078 9.09414 16.8065 8.7511Z" stroke="#FEFEFE" stroke-width="3" stroke-linecap="round" stroke-linejoin="round"/>
<defs>
<linearGradient id="paint0_linear_346_141" x1="27.5" y1="4.58325" x2="27.5" y2="50.4166" gradientUnits="userSpaceOnUse">
<stop stop-color="#47B2B9"/>
<stop offset="1" stop-color="#70A97C"/>
</linearGradient>
</defs>
</svg>
