<svg width="17" height="12" viewBox="0 0 17 12" fill="none" xmlns="http://www.w3.org/2000/svg">
<path d="M0.822904 6.40988C0.720764 6.24815 0.669694 6.16729 0.641105 6.04256C0.619632 5.94887 0.619632 5.80113 0.641105 5.70744C0.669694 5.58271 0.720764 5.50185 0.822904 5.34012C1.66696 4.00363 4.17936 0.625 8.00812 0.625C11.8369 0.625 14.3493 4.00363 15.1933 5.34012C15.2955 5.50185 15.3465 5.58271 15.3751 5.70744C15.3966 5.80113 15.3966 5.94887 15.3751 6.04256C15.3465 6.16729 15.2955 6.24815 15.1933 6.40988C14.3493 7.74637 11.8369 11.125 8.00812 11.125C4.17936 11.125 1.66696 7.74637 0.822904 6.40988Z" stroke="#959595" stroke-width="1.25" stroke-linecap="round" stroke-linejoin="round"/>
<path d="M8.00812 8.125C9.25076 8.125 10.2581 7.11764 10.2581 5.875C10.2581 4.63236 9.25076 3.625 8.00812 3.625C6.76547 3.625 5.75812 4.63236 5.75812 5.875C5.75812 7.11764 6.76547 8.125 8.00812 8.125Z" stroke="#959595" stroke-width="1.25" stroke-linecap="round" stroke-linejoin="round"/>
</svg>
