<svg width="24" height="24" viewBox="0 0 24 24" fill="none" xmlns="http://www.w3.org/2000/svg">
<g clip-path="url(#clip0_474_4538)">
<path d="M21.3086 13.3358V8.64038C21.3086 7.974 21.8539 7.43213 22.524 7.43213C22.6826 7.43208 22.8398 7.4633 22.9864 7.52401C23.1329 7.58472 23.2661 7.67372 23.3783 7.78593C23.4905 7.89814 23.5795 8.03136 23.6401 8.17797C23.7008 8.32458 23.732 8.48171 23.7319 8.64038V15.0698C23.7314 15.9566 23.4146 16.8141 22.8382 17.4881L18.8291 21.7459C18.4312 22.1205 18.3337 22.452 18.3337 22.9545V23.7296H13.9699L13.965 21.8854C13.965 21.183 13.9076 20.2444 14.7866 19.3234L19.8739 14.2151C20.0512 14.038 20.2905 13.9369 20.5411 13.933C20.7917 13.9291 21.0339 14.0229 21.2166 14.1945C21.3993 14.366 21.5082 14.6019 21.5201 14.8522C21.532 15.1026 21.4461 15.3477 21.2805 15.5359L18.8269 18.1643C18.6679 18.3506 18.3986 18.702 18.2651 19.1325C18.1931 19.356 18.1725 19.5739 18.1684 19.824H18.9581C18.9611 19.6459 18.9746 19.5026 19.017 19.3699C19.0942 19.1216 19.248 18.8981 19.3639 18.7549L21.8546 16.0211C22.1677 15.7054 22.3395 15.2966 22.3395 14.8669C22.3395 14.2215 21.9514 13.6279 21.3094 13.3354L21.3086 13.3358ZM2.92423 13.3358V8.64038C2.92423 7.974 2.37898 7.43213 1.70885 7.43213C1.55019 7.43208 1.39307 7.4633 1.24647 7.52401C1.09988 7.58472 0.966689 7.67372 0.854513 7.78593C0.742336 7.89814 0.653375 8.03136 0.592713 8.17797C0.532051 8.32458 0.500878 8.48171 0.500977 8.64038V15.0698C0.500977 15.9589 0.820852 16.8176 1.39498 17.4881L5.40448 21.7459C5.80198 22.1205 5.89985 22.452 5.89985 22.9545V23.7296H10.2637L10.2686 21.8854C10.2686 21.183 10.326 20.2444 9.44698 19.3234L4.35973 14.2151C4.18239 14.038 3.94312 13.9369 3.69252 13.933C3.44193 13.9291 3.19966 14.0229 3.01695 14.1945C2.83424 14.366 2.72542 14.6019 2.71351 14.8522C2.70159 15.1026 2.78751 15.3477 2.9531 15.5359L5.4071 18.1643C5.5661 18.3506 5.83535 18.702 5.96885 19.1325C6.04123 19.356 6.06148 19.5739 6.0656 19.824H5.27585C5.27285 19.6459 5.25973 19.5026 5.2166 19.3699C5.13973 19.1216 4.9856 18.8981 4.86973 18.7549L2.37898 16.0215C2.06585 15.7058 1.8941 15.2966 1.8941 14.8673C1.8941 14.2215 2.28223 13.6283 2.92423 13.3358ZM12.5756 2.29613C12.8504 2.29613 13.1139 2.18697 13.3083 1.99266C13.5026 1.79834 13.6117 1.5348 13.6117 1.26C13.6117 0.985207 13.5026 0.721664 13.3083 0.527353C13.1139 0.333042 12.8504 0.223879 12.5756 0.223879C12.3008 0.223879 12.0373 0.333042 11.843 0.527353C11.6486 0.721664 11.5395 0.985207 11.5395 1.26C11.5395 1.5348 11.6486 1.79834 11.843 1.99266C12.0373 2.18697 12.3008 2.29613 12.5756 2.29613ZM6.95548 2.30175C6.81799 2.30235 6.68173 2.27583 6.55449 2.22373C6.42725 2.17163 6.31154 2.09496 6.21395 1.9981C6.11636 1.90125 6.03882 1.78611 5.98577 1.65927C5.93271 1.53243 5.90517 1.39637 5.90473 1.25888C5.90522 1.12142 5.93279 0.985405 5.98587 0.858607C6.03895 0.731809 6.1165 0.616714 6.21408 0.519899C6.31166 0.423084 6.42736 0.346447 6.55458 0.294368C6.68179 0.242288 6.81802 0.215787 6.95548 0.216379C7.53598 0.216379 8.00773 0.682879 8.00773 1.25888C8.00773 1.836 7.53598 2.30175 6.95548 2.30175ZM17.7225 6.30075C17.8179 6.3007 17.9124 6.28186 18.0006 6.24529C18.0887 6.20872 18.1688 6.15515 18.2363 6.08763C18.3037 6.02011 18.3572 5.93997 18.3937 5.85177C18.4302 5.76358 18.4489 5.66907 18.4489 5.57363C18.4488 5.47819 18.43 5.3837 18.3934 5.29554C18.3568 5.20739 18.3032 5.1273 18.2357 5.05985C18.1682 4.9924 18.0881 4.93891 17.9999 4.90243C17.9117 4.86595 17.8172 4.84721 17.7217 4.84725C17.529 4.84735 17.3442 4.92402 17.2079 5.06038C17.0717 5.19674 16.9953 5.38163 16.9954 5.57438C16.9955 5.76713 17.0721 5.95194 17.2085 6.08816C17.3448 6.22438 17.5297 6.30085 17.7225 6.30075Z" fill="#797F8F"/>
<path d="M18.7751 6.65925H16.8149C16.8059 6.65925 16.159 6.60037 16.159 6.60037L15.3382 3.73912C15.0078 2.58712 14.0418 2.62237 14.0418 2.62237H11.3846C11.3846 2.62237 10.4193 2.58712 10.0889 3.73912L9.68355 5.148L9.2793 3.73912C8.94705 2.58712 7.98368 2.62237 7.98368 2.62237H5.92755C5.92755 2.62237 4.96155 2.58712 4.63118 3.73912L3.80355 6.6225C3.7248 6.8925 3.87255 7.09725 4.1088 7.1655C4.3443 7.23262 4.58543 7.11375 4.6458 6.89887L5.45205 4.08825L5.84468 4.0875L4.66793 8.95387H5.7078V12.4106C5.7078 12.6952 5.9373 12.927 6.22268 12.927C6.5073 12.927 6.74018 12.6952 6.74018 12.4106V8.95387H7.1763V12.4106C7.1763 12.6952 7.40618 12.927 7.6908 12.927C7.82799 12.9272 7.95964 12.8729 8.05682 12.7761C8.154 12.6793 8.20875 12.5478 8.20905 12.4106V8.95387H9.23093L8.06655 4.0875L8.45768 4.08825L9.25493 6.86925C9.26843 6.91725 9.28918 6.96012 9.31718 6.99787C9.39518 7.116 9.5313 7.18125 9.6828 7.17637C9.8343 7.18125 9.96968 7.11637 10.0477 7.00012C10.0803 6.95764 10.1034 6.90867 10.1156 6.8565L10.9087 4.08787L11.2702 4.08712V12.3101C11.2702 12.6461 11.5451 12.9176 11.8803 12.9176C12.2159 12.9176 12.4878 12.6461 12.4878 12.3101V7.63162H12.9371V12.3101C12.9371 12.6461 13.2093 12.9176 13.5438 12.9176C13.8802 12.9176 14.1558 12.6461 14.1558 12.3101V4.08712L14.5488 4.08787L15.3205 6.8985C15.3625 7.03687 15.4781 7.12837 15.6164 7.16362C15.6224 7.16512 15.6254 7.16775 15.6303 7.16925C15.7533 7.197 16.3203 7.35787 16.7365 7.47675V12.5767C16.7412 12.687 16.7882 12.7913 16.8679 12.8677C16.9476 12.9441 17.0537 12.9867 17.164 12.9867C17.2744 12.9867 17.3805 12.9441 17.4602 12.8677C17.5399 12.7913 17.5869 12.687 17.5915 12.5767V10.029H17.9261V12.5767C17.9261 12.8122 18.1169 13.0031 18.3524 13.0031C18.5879 13.0031 18.7814 12.8122 18.7814 12.5767V7.81275H19.1095V9.42675C19.1095 9.60412 19.2532 9.74662 19.4275 9.74662C19.4693 9.74653 19.5105 9.73815 19.549 9.72197C19.5875 9.70579 19.6223 9.68213 19.6515 9.65238C19.6808 9.62262 19.7038 9.58735 19.7193 9.54861C19.7348 9.50988 19.7424 9.46846 19.7418 9.42675V7.59075C19.7425 7.07662 19.2899 6.65925 18.7758 6.65925H18.7751Z" fill="#797F8F"/>
</g>
<defs>
<clipPath id="clip0_474_4538">
<rect width="24" height="24" fill="white"/>
</clipPath>
</defs>
</svg>
