<svg width="150" height="150" viewBox="0 0 150 150" fill="none" xmlns="http://www.w3.org/2000/svg">
<rect width="150" height="150" rx="75" fill="white"/>
<path d="M66.2505 104.191C61.5264 106.57 57.3731 102.727 54.9324 98.7586C54.1056 97.4082 53.4167 96.0163 52.8754 94.7595C51.7928 92.2561 50.7692 89.7112 49.6276 87.239C48.9288 85.7225 48.2497 84.3202 47.9938 82.627C46.7537 74.6184 53.3773 66.5162 61.2115 67.69C64.538 68.1886 68.0614 69.8298 68.6028 73.7043C68.898 75.8129 68.3764 77.9527 67.5792 79.8848C66.8312 81.7026 66.1423 82.9906 66.4474 85.0577C66.9493 88.4855 69.3999 91.1343 70.9254 94.0739C71.762 95.6632 72.5986 101.002 66.2505 104.191ZM66.1718 67.0979C68.1796 67.0979 69.8035 65.384 69.8035 63.265C69.8035 61.146 68.1796 59.4321 66.1718 59.4321C64.1641 59.4321 62.5401 61.146 62.5401 63.265C62.5401 65.384 64.1641 67.0979 66.1718 67.0979ZM58.7215 66.2981C60.247 66.2981 61.4772 64.9062 61.4772 63.1819C61.4772 61.468 60.2371 60.0657 58.7215 60.0657C57.196 60.0657 55.9658 61.4576 55.9658 63.1819C55.9658 64.9062 57.2058 66.2981 58.7215 66.2981ZM53.1903 68.5522C54.5387 68.2613 55.3851 66.7759 55.0898 65.249C54.7847 63.722 53.4561 62.7145 52.0979 63.0053C50.7495 63.2962 49.9031 64.7816 50.1984 66.3085C50.5035 67.8458 51.8322 68.8534 53.1903 68.5522ZM47.0195 71.9177C48.2891 72.4682 49.6768 72.0008 50.1197 70.8685C50.5626 69.7363 49.8933 68.3756 48.6335 67.8147C47.3639 67.2641 45.9762 67.7316 45.5333 68.8638C45.0905 69.996 45.7499 71.3671 47.0195 71.9177ZM45.7203 73.3823C44.6476 73.1018 43.5748 73.7147 43.3288 74.7638C43.0827 75.8129 43.752 76.8932 44.8247 77.1737C45.8975 77.4541 46.9703 76.8413 47.2163 75.7922C47.4624 74.743 46.7931 73.6627 45.7203 73.3823Z" fill="url(#paint0_linear_1_61)"/>
<path d="M102.006 68.2717C101.75 69.9544 101.071 71.3671 100.372 72.8837C99.2307 75.3559 98.2071 77.9008 97.1245 80.4041C96.5832 81.661 95.8943 83.0633 95.0675 84.4032C92.6366 88.3712 88.4833 92.2145 83.7494 89.8358C77.4013 86.6469 78.228 81.2974 79.0646 79.7082C80.5999 76.7685 83.0407 74.1198 83.5427 70.6919C83.8478 68.6352 83.149 67.3368 82.4109 65.519C81.6235 63.5974 81.092 61.4472 81.3873 59.3386C81.9286 55.4641 85.452 53.8125 88.7786 53.3243C96.6226 52.1609 103.246 60.263 102.006 68.2717ZM83.8281 52.7426C85.8358 52.7426 87.4597 51.0287 87.4597 48.9097C87.4597 46.7906 85.8358 45.0767 83.8281 45.0767C81.8203 45.0767 80.1964 46.7906 80.1964 48.9097C80.1964 51.0287 81.8203 52.7426 83.8281 52.7426ZM91.2784 51.9428C92.8039 51.9428 94.0341 50.5509 94.0341 48.8266C94.0341 47.1126 92.7941 45.7103 91.2784 45.7103C89.7529 45.7103 88.5227 47.1023 88.5227 48.8266C88.5128 50.5509 89.7529 51.9428 91.2784 51.9428ZM96.8096 54.1968C98.1579 54.4877 99.4964 53.4905 99.8015 51.9532C100.107 50.4262 99.2503 48.9408 97.902 48.65C96.5537 48.3591 95.2152 49.3563 94.9101 50.8936C94.6148 52.4206 95.4612 53.8956 96.8096 54.1968ZM99.8802 56.5132C100.323 57.6454 101.711 58.1129 102.98 57.5623C104.25 57.0118 104.919 55.6407 104.467 54.5084C104.024 53.3762 102.636 52.9088 101.366 53.4593C100.107 54.0098 99.4373 55.381 99.8802 56.5132ZM106.671 60.3981C106.425 59.3489 105.352 58.7361 104.28 59.0166C103.207 59.297 102.538 60.3773 102.784 61.4264C103.03 62.4755 104.102 63.0884 105.175 62.8079C106.248 62.5275 106.917 61.4472 106.671 60.3981Z" fill="url(#paint1_linear_1_61)"/>
<defs>
<linearGradient id="paint0_linear_1_61" x1="57.3871" y1="59.4321" x2="57.3871" y2="104.923" gradientUnits="userSpaceOnUse">
<stop stop-color="#47B2B9"/>
<stop offset="1" stop-color="#70A97C"/>
</linearGradient>
<linearGradient id="paint1_linear_1_61" x1="92.6092" y1="45.0767" x2="92.6092" y2="90.5679" gradientUnits="userSpaceOnUse">
<stop stop-color="#47B2B9"/>
<stop offset="1" stop-color="#70A97C"/>
</linearGradient>
</defs>
</svg>
