<?xml version="1.0" encoding="UTF-8"?>
<svg version="1.1" xmlns="http://www.w3.org/2000/svg" width="1216" height="453">
<path d="M0 0 C396.99 0 793.98 0 1203 0 C1195.36525321 7.63474679 1187.40503566 14.7449712 1179.0078125 21.52734375 C1175.49298875 24.41680275 1172.05586285 27.38678693 1168.625 30.375 C1163.39857907 34.92659717 1158.14289219 39.43852393 1152.84423828 43.90576172 C1148.87899977 47.25071239 1144.93534871 50.61994922 1141 54 C1135.98366277 58.3077251 1130.94677847 62.58994615 1125.89453125 66.85546875 C1121.91416399 70.21902365 1117.95356376 73.60499713 1114 77 C1108.98518413 81.30632091 1103.9506611 85.58814295 1098.89892578 89.85107422 C1094.87137528 93.25317557 1090.87099984 96.68593583 1086.875 100.125 C1082.7131582 103.70626602 1078.51730831 107.2315813 1074.25 110.6875 C1069.86848205 114.24267904 1065.68289319 117.96769537 1061.51171875 121.765625 C1058.99848768 124.00134533 1056.42688521 126.13377682 1053.8125 128.25 C1048.67305572 132.41084769 1043.67673848 136.71734489 1038.69091797 141.05932617 C1034.10956654 145.0464122 1029.49289557 148.98785505 1024.84863281 152.90136719 C1020.83615915 156.28481864 1016.85281439 159.70090777 1012.875 163.125 C1008.71319863 166.706311 1004.5173063 170.23158293 1000.25 173.6875 C995.86848205 177.24267904 991.68289319 180.96769537 987.51171875 184.765625 C984.99848768 187.00134533 982.42688521 189.13377682 979.8125 191.25 C974.67305572 195.41084769 969.67673848 199.71734489 964.69091797 204.05932617 C960.10956654 208.0464122 955.49289557 211.98785505 950.84863281 215.90136719 C946.83615915 219.28481864 942.85281439 222.70090777 938.875 226.125 C934.71319863 229.706311 930.5173063 233.23158293 926.25 236.6875 C921.86848205 240.24267904 917.68289319 243.96769537 913.51171875 247.765625 C910.99848768 250.00134533 908.42688521 252.13377682 905.8125 254.25 C900.67305572 258.41084769 895.67673848 262.71734489 890.69091797 267.05932617 C886.10956654 271.0464122 881.49289557 274.98785505 876.84863281 278.90136719 C872.83615915 282.28481864 868.85281439 285.70090777 864.875 289.125 C860.71319863 292.706311 856.5173063 296.23158293 852.25 299.6875 C847.86848205 303.24267904 843.68289319 306.96769537 839.51171875 310.765625 C836.99848768 313.00134533 834.42688521 315.13377682 831.8125 317.25 C826.67305572 321.41084769 821.67673848 325.71734489 816.69091797 330.05932617 C812.10956654 334.0464122 807.49289557 337.98785505 802.84863281 341.90136719 C798.83615915 345.28481864 794.85281439 348.70090777 790.875 352.125 C786.71319863 355.706311 782.5173063 359.23158293 778.25 362.6875 C773.86848205 366.24267904 769.68289319 369.96769537 765.51171875 373.765625 C762.11108053 376.79076507 758.57598614 379.63362722 755.03515625 382.4921875 C752.18777797 384.84484754 749.41366313 387.25978078 746.64599609 389.70458984 C703.3199824 427.87566706 647.67362485 449.21254222 589.58984375 445.69140625 C536.80510279 442.07813939 492.37957216 420.9731047 452.77050781 386.53662109 C449.83715948 383.99077245 446.88717727 381.46439156 443.9375 378.9375 C443.35750244 378.44008301 442.77750488 377.94266602 442.17993164 377.43017578 C437.76760967 373.64889049 433.33428464 369.89300328 428.89428711 366.14428711 C424.32010237 362.27904216 419.77378817 358.3819064 415.23046875 354.48046875 C410.80418667 350.68230652 406.35640661 346.91039253 401.89892578 343.14892578 C397.87137528 339.74682443 393.87099984 336.31406417 389.875 332.875 C385.7131582 329.29373398 381.51730831 325.7684187 377.25 322.3125 C372.86848205 318.75732096 368.68289319 315.03230463 364.51171875 311.234375 C361.99848768 308.99865467 359.42688521 306.86622318 356.8125 304.75 C351.67305572 300.58915231 346.67673848 296.28265511 341.69091797 291.94067383 C337.10956654 287.9535878 332.49289557 284.01214495 327.84863281 280.09863281 C323.83615915 276.71518136 319.85281439 273.29909223 315.875 269.875 C311.71319863 266.293689 307.5173063 262.76841707 303.25 259.3125 C298.86848205 255.75732096 294.68289319 252.03230463 290.51171875 248.234375 C287.99848768 245.99865467 285.42688521 243.86622318 282.8125 241.75 C277.67305572 237.58915231 272.67673848 233.28265511 267.69091797 228.94067383 C263.10956654 224.9535878 258.49289557 221.01214495 253.84863281 217.09863281 C249.83615915 213.71518136 245.85281439 210.29909223 241.875 206.875 C237.71319863 203.293689 233.5173063 199.76841707 229.25 196.3125 C224.86848205 192.75732096 220.68289319 189.03230463 216.51171875 185.234375 C213.99848768 182.99865467 211.42688521 180.86622318 208.8125 178.75 C203.67305572 174.58915231 198.67673848 170.28265511 193.69091797 165.94067383 C189.10956654 161.9535878 184.49289557 158.01214495 179.84863281 154.09863281 C175.83615915 150.71518136 171.85281439 147.29909223 167.875 143.875 C163.71319863 140.293689 159.5173063 136.76841707 155.25 133.3125 C150.86848205 129.75732096 146.68289319 126.03230463 142.51171875 122.234375 C139.99848768 119.99865467 137.42688521 117.86622318 134.8125 115.75 C129.67305572 111.58915231 124.67673848 107.28265511 119.69091797 102.94067383 C115.10956654 98.9535878 110.49289557 95.01214495 105.84863281 91.09863281 C101.83615915 87.71518136 97.85281439 84.29909223 93.875 80.875 C89.71319863 77.293689 85.5173063 73.76841707 81.25 70.3125 C76.86848205 66.75732096 72.68289319 63.03230463 68.51171875 59.234375 C65.99848768 56.99865467 63.42688521 54.86622318 60.8125 52.75 C55.67305572 48.58915231 50.67673848 44.28265511 45.69091797 39.94067383 C41.10956654 35.9535878 36.49289557 32.01214495 31.84863281 28.09863281 C27.24448152 24.21625906 22.67847669 20.29054244 18.1159668 16.359375 C13.52584544 12.41778044 8.8470987 8.60339053 4.109375 4.83984375 C2 3 2 3 0 0 Z " fill="#67C6C1" transform="translate(4,0)"/>
<path d="M0 0 C1.85408512 1.47427253 3.68964658 2.97234441 5.5 4.5 C6.21414063 5.10070312 6.92828125 5.70140625 7.6640625 6.3203125 C23.28765484 20.69899708 32.31706015 42.55016186 33.7734375 63.41796875 C34.58678362 87.48510633 25.9444077 108.98722189 10.265625 127.078125 C-4.40873711 142.71159575 -26.24822012 152.93949717 -47.75 153.703125 C-70.76057183 154.0830051 -92.20054314 147.83212237 -109.20019531 131.75708008 C-119.79692651 121.46636009 -127.51155537 111.22643535 -132.8125 97.375 C-133.05508545 96.74255371 -133.2976709 96.11010742 -133.54760742 95.45849609 C-140.83100337 75.38217173 -139.15511552 53.05177893 -130.6875 33.6875 C-125.61069814 23.40697624 -119.54240908 14.67895253 -111.5 6.5 C-110.81292969 5.80003906 -110.12585938 5.10007813 -109.41796875 4.37890625 C-79.05827731 -24.51631027 -32.71491541 -23.71831367 0 0 Z " fill="#FEFEFE" transform="translate(657.5,166.5)"/>
</svg>
