<svg width="55" height="55" viewBox="0 0 55 55" fill="none" xmlns="http://www.w3.org/2000/svg">
<path d="M27.5 50.4166C40.1565 50.4166 50.4166 40.1564 50.4166 27.4999C50.4166 14.8434 40.1565 4.58325 27.5 4.58325C14.8435 4.58325 4.58331 14.8434 4.58331 27.4999C4.58331 40.1564 14.8435 50.4166 27.5 50.4166Z" fill="#C01304"/>
<path d="M34.375 20.6249L20.625 34.3749M20.625 20.6249L34.375 34.3749M50.4166 27.4999C50.4166 40.1564 40.1565 50.4166 27.5 50.4166C14.8435 50.4166 4.58331 40.1564 4.58331 27.4999C4.58331 14.8434 14.8435 4.58325 27.5 4.58325C40.1565 4.58325 50.4166 14.8434 50.4166 27.4999Z" stroke="#FEFEFE" stroke-width="4.58333" stroke-linecap="round" stroke-linejoin="round"/>
</svg>
